<?xml version="1.0" encoding="utf-8"?>
<!-- Generator: Adobe Illustrator 25.4.1, SVG Export Plug-In . SVG Version: 6.00 Build 0)  -->
<svg version="1.1" id="Layer_1" xmlns="http://www.w3.org/2000/svg" xmlns:xlink="http://www.w3.org/1999/xlink" x="0px" y="0px"
	 viewBox="0 0 256 256" style="enable-background:new 0 0 256 256;" xml:space="preserve">
<style type="text/css">
	.st0{fill:#FFFFFF;}
</style>
<desc>Created with Fabric.js 1.7.22</desc>
<g transform="translate(128 128) scale(0.72 0.72)">
	<g transform="translate(-175.05 -175.05) scale(3.89 3.89)">
		<path class="st0" d="M88.2,30.2c-2-7.9-6.2-11.6-13.2-11.6H4.7c-2.6,0-4.7,2.1-4.7,4.7v35.9c0,2.2,1.8,4.1,4.1,4.1h4.9
			c0.6,4.6,4.5,8.1,9.2,8.1s8.6-3.5,9.2-8.1h38.9c0.6,4.6,4.5,8.1,9.2,8.1s8.6-3.5,9.2-8.1H86c2.2,0,4-1.8,4-4
			C90,46.1,89.9,36.9,88.2,30.2z M19.1,40.7c-0.2,0-0.3-0.1-0.3-0.3V30c0-0.2,0.1-0.3,0.3-0.3h14.8v11L19.1,40.7L19.1,40.7z
			 M36.8,29.7h15.1v11H36.8V29.7z M54.9,29.7h15.1v11H54.9L54.9,29.7L54.9,29.7z M72.9,29.7H85c0.1,0.4,0.2,0.8,0.3,1.2
			c1,4,1.4,9.1,1.6,15.5c-4.4-3.4-9-5.2-14-5.6L72.9,29.7L72.9,29.7z M18.1,68.5c-3.5,0-6.3-2.8-6.3-6.3c0-3.5,2.8-6.3,6.3-6.3
			c3.5,0,6.3,2.8,6.3,6.3C24.5,65.6,21.6,68.5,18.1,68.5z M75.4,68.5c-3.5,0-6.3-2.8-6.3-6.3c0-3.5,2.8-6.3,6.3-6.3s6.3,2.8,6.3,6.3
			C81.7,65.6,78.9,68.5,75.4,68.5z M86,60.3h-1.4c-0.8-4.3-4.6-7.5-9.1-7.5s-8.3,3.2-9.1,7.5H27.2c-0.8-4.3-4.6-7.5-9.1-7.5
			S9.9,56.1,9,60.3h-5c-0.6,0-1.1-0.5-1.1-1.1V23.3c0-1,0.8-1.7,1.7-1.7H75c4.2,0,7,1.6,8.8,5.2H19.1c-1.8,0-3.2,1.5-3.2,3.2v10.5
			c0,1.8,1.5,3.2,3.2,3.2h52.3C77,43.8,82.1,46,87,50.4c0,2.7,0,5.7,0,8.9C87,59.9,86.5,60.3,86,60.3z"/>
		<circle class="st0" cx="18.1" cy="62.1" r="2.1"/>
		<circle class="st0" cx="75.4" cy="62.1" r="2.1"/>
	</g>
</g>
</svg>
